<svg width="41" height="41" viewBox="0 0 41 41" fill="none" xmlns="http://www.w3.org/2000/svg"><path d="M20.0018 38.1988C30.0474 38.1988 38.191 30.0552 38.191 20.0096C38.191 9.96392 30.0474 1.82031 20.0018 1.82031C9.95611 1.82031 1.8125 9.96392 1.8125 20.0096C1.8125 30.0552 9.95611 38.1988 20.0018 38.1988Z" fill="#fff"></path><path d="M16.1267 16.1502L13.1953 26.8015L23.8831 23.8701L26.7963 13.2188L16.1267 16.1502Z" fill="#fff"></path><path d="M13.2003 28.6383C12.727 28.6383 12.2536 28.4562 11.9076 28.1102C11.4524 27.6551 11.2704 26.9632 11.4342 26.3441L14.3656 15.6745C14.5477 15.0373 15.0393 14.5457 15.6584 14.3818L26.3279 11.4504C26.9652 11.2865 27.6389 11.4504 28.0941 11.9238C28.5492 12.379 28.7313 13.0709 28.5674 13.6899L25.636 24.3595C25.4722 24.9786 24.9806 25.4702 24.3615 25.634L13.6919 28.5654C13.5281 28.6018 13.3642 28.6383 13.2003 28.6383ZM17.6248 17.6227L15.8222 24.2138L22.4133 22.3931L24.2159 15.802L17.6248 17.6227Z" fill="black"></path><path d="M20.01 40.02C8.97628 40.02 0 31.0437 0 20.01C0 8.97628 8.97628 0 20.01 0C31.0437 0 40.02 8.97628 40.02 20.01C40.02 31.0437 31.0437 40.02 20.01 40.02ZM20.01 3.64149C10.9791 3.64149 3.64149 10.9791 3.64149 20.01C3.64149 29.0409 10.9791 36.3785 20.01 36.3785C29.0409 36.3785 36.3785 29.0409 36.3785 20.01C36.3785 10.9791 29.0409 3.64149 20.01 3.64149Z" fill="#fff"></path></svg>