<svg width="36" height="35" viewBox="0 0 36 35" fill="none" xmlns="http://www.w3.org/2000/svg"><path d="M8.48944 5.27561C12.9341 2.04635 15.1565 0.431716 17.6945 0.33861C17.8981 0.331141 18.1019 0.331141 18.3055 0.33861C20.8435 0.431716 23.0659 2.04635 27.5106 5.27561C31.9553 8.50486 34.1776 10.1195 35.0505 12.5045C35.1205 12.6959 35.1835 12.8897 35.2393 13.0856C35.935 15.5282 35.0861 18.1407 33.3884 23.3658L30.5201 32.1937C30.0643 33.5964 28.7571 34.5461 27.2823 34.5461C25.4021 34.5461 23.8779 33.0219 23.8779 31.1417V26.5602C23.8779 24.7959 22.4477 23.3658 20.6835 23.3658H15.3165C13.5523 23.3658 12.1222 24.7959 12.1222 26.5602V31.1417C12.1222 33.0219 10.598 34.5461 8.71775 34.5461C7.24287 34.5461 5.93573 33.5964 5.47997 32.1937L2.61159 23.3658C0.91387 18.1407 0.0650094 15.5282 0.760752 13.0856C0.816564 12.8897 0.879543 12.6959 0.949562 12.5045C1.8224 10.1195 4.04475 8.50486 8.48944 5.27561Z" fill="#8E00FE"></path></svg>