<svg width="24" height="30" viewBox="0 0 24 30" fill="none" xmlns="http://www.w3.org/2000/svg"><path d="M24 23.3237V24.8124C24 24.9856 23.9335 25.1517 23.815 25.2741C23.6966 25.3966 23.5359 25.4654 23.3684 25.4654H0.63158C0.464074 25.4654 0.30343 25.3966 0.184986 25.2741C0.0665418 25.1517 5.05632e-07 24.9856 5.05632e-07 24.8124V23.3237C-0.000347605 22.8441 0.179063 22.3829 0.500562 22.0372C0.822061 21.6914 1.26064 21.4879 1.72421 21.4693C1.81385 21.3015 1.87172 21.1175 1.89474 20.9273V13.1375C1.89105 11.6018 2.22718 10.0856 2.87743 8.70492C3.52767 7.3242 4.47479 6.11554 5.64632 5.17143C6.83443 4.21369 8.21882 3.54981 9.69343 3.23065C11.168 2.91148 12.6938 2.9455 14.1537 3.33009C18.1895 4.3487 21.4737 8.78882 21.4737 13.2224V20.7576C21.6637 21.0528 21.9192 21.2968 22.2189 21.4693C22.6925 21.4727 23.1455 21.6696 23.4791 22.017C23.8128 22.3644 24 22.8341 24 23.3237ZM11.6968 2.36371C12.4357 2.36933 13.1721 2.45246 13.8947 2.61183V1.95888C13.8947 1.43935 13.6951 0.941102 13.3398 0.573741C12.9844 0.206381 12.5025 0 12 0C11.4975 0 11.0156 0.206381 10.6602 0.573741C10.3049 0.941102 10.1053 1.43935 10.1053 1.95888V2.4943C10.6319 2.4098 11.1639 2.36615 11.6968 2.36371ZM7.62947 26.1183C7.78883 27.1987 8.3173 28.1842 9.11911 28.8963C9.92091 29.6085 10.943 30 12 30C13.057 30 14.0791 29.6085 14.8809 28.8963C15.6827 28.1842 16.2112 27.1987 16.3705 26.1183H7.62947Z" fill="#fff"></path></svg>