<svg width="16" height="17" viewBox="0 0 16 17" fill="none" xmlns="http://www.w3.org/2000/svg">
<path d="M6.23597 14.5002C6.70606 14.9151 7.32355 15.1668 7.99985 15.1668C8.67615 15.1668 9.29364 14.9151 9.76373 14.5002M11.9998 5.8335C11.9998 4.77263 11.5784 3.75521 10.8283 3.00507C10.0781 2.25492 9.06072 1.8335 7.99985 1.8335C6.93898 1.8335 5.92157 2.25492 5.17142 3.00507C4.42128 3.75521 3.99985 4.77263 3.99985 5.8335C3.99985 7.89362 3.48016 9.30413 2.89963 10.2371C2.40993 11.0241 2.16509 11.4176 2.17407 11.5273C2.18401 11.6489 2.20976 11.6952 2.3077 11.7679C2.39616 11.8335 2.79491 11.8335 3.59242 11.8335H12.4073C13.2048 11.8335 13.6035 11.8335 13.692 11.7679C13.7899 11.6952 13.8157 11.6489 13.8256 11.5273C13.8346 11.4176 13.5898 11.0241 13.1001 10.2371C12.5195 9.30413 11.9998 7.89362 11.9998 5.8335Z" stroke="#6B004D" stroke-width="1.21" stroke-linecap="round" stroke-linejoin="round"/>
</svg>
