<svg width="16" height="17" viewBox="0 0 16 17" fill="none" xmlns="http://www.w3.org/2000/svg">
<path d="M14 7.16683H2M10.6667 1.8335V4.50016M5.33333 1.8335V4.50016M6 11.1668L7.33333 12.5002L10.3333 9.50016M5.2 15.1668H10.8C11.9201 15.1668 12.4802 15.1668 12.908 14.9488C13.2843 14.7571 13.5903 14.4511 13.782 14.0748C14 13.647 14 13.0869 14 11.9668V6.36683C14 5.24672 14 4.68667 13.782 4.25885C13.5903 3.88252 13.2843 3.57656 12.908 3.38482C12.4802 3.16683 11.9201 3.16683 10.8 3.16683H5.2C4.0799 3.16683 3.51984 3.16683 3.09202 3.38482C2.71569 3.57656 2.40973 3.88252 2.21799 4.25885C2 4.68667 2 5.24672 2 6.36683V11.9668C2 13.0869 2 13.647 2.21799 14.0748C2.40973 14.4511 2.71569 14.7571 3.09202 14.9488C3.51984 15.1668 4.0799 15.1668 5.2 15.1668Z" stroke="#6B004D" stroke-width="1.21" stroke-linecap="round" stroke-linejoin="round"/>
</svg>
