<svg width="8" height="8" viewBox="0 0 8 8" fill="none" xmlns="http://www.w3.org/2000/svg">
<g clip-path="url(#clip0_3104_3189)">
<path d="M7.33317 3.83317V4.8665C7.33317 5.61324 7.33317 5.98661 7.18785 6.27182C7.06001 6.52271 6.85604 6.72668 6.60516 6.85451C6.31994 6.99984 5.94657 6.99984 5.19984 6.99984H2.79984C2.0531 6.99984 1.67973 6.99984 1.39452 6.85451C1.14363 6.72668 0.93966 6.52271 0.811829 6.27182C0.666504 5.98661 0.666504 5.61324 0.666504 4.8665V3.13317C0.666504 2.38643 0.666504 2.01307 0.811829 1.72785C0.93966 1.47697 1.14363 1.27299 1.39452 1.14516C1.67973 0.999837 2.0531 0.999837 2.79984 0.999837H4.1665M6.33317 2.6665V0.666504M5.33317 1.6665H7.33317M5.33317 3.99984C5.33317 4.73622 4.73622 5.33317 3.99984 5.33317C3.26346 5.33317 2.6665 4.73622 2.6665 3.99984C2.6665 3.26346 3.26346 2.6665 3.99984 2.6665C4.73622 2.6665 5.33317 3.26346 5.33317 3.99984Z" stroke="#6B004D" stroke-linecap="round" stroke-linejoin="round"/>
</g>
<defs>
<clipPath id="clip0_3104_3189">
<rect width="8" height="8" fill="white"/>
</clipPath>
</defs>
</svg>
