<svg width="16" height="17" viewBox="0 0 16 17" fill="none" xmlns="http://www.w3.org/2000/svg">
<path d="M14.6668 7.16683H1.3335M7.3335 9.8335H4.00016M1.3335 5.96683L1.3335 11.0335C1.3335 11.7802 1.3335 12.1536 1.47882 12.4388C1.60665 12.6897 1.81063 12.8937 2.06151 13.0215C2.34672 13.1668 2.72009 13.1668 3.46683 13.1668L12.5335 13.1668C13.2802 13.1668 13.6536 13.1668 13.9388 13.0215C14.1897 12.8937 14.3937 12.6897 14.5215 12.4388C14.6668 12.1536 14.6668 11.7802 14.6668 11.0335V5.96683C14.6668 5.22009 14.6668 4.84673 14.5215 4.56151C14.3937 4.31063 14.1897 4.10665 13.9388 3.97882C13.6536 3.8335 13.2802 3.8335 12.5335 3.8335L3.46683 3.8335C2.72009 3.8335 2.34672 3.8335 2.06151 3.97882C1.81063 4.10665 1.60665 4.31063 1.47882 4.56151C1.3335 4.84672 1.3335 5.22009 1.3335 5.96683Z" stroke="#6B004D" stroke-width="1.21" stroke-linecap="round" stroke-linejoin="round"/>
</svg>
