<svg width="16" height="17" viewBox="0 0 16 17" fill="none" xmlns="http://www.w3.org/2000/svg">
<path d="M13.3332 7.16683V5.0335C13.3332 3.91339 13.3332 3.35334 13.1152 2.92552C12.9234 2.54919 12.6175 2.24323 12.2412 2.05148C11.8133 1.8335 11.2533 1.8335 10.1332 1.8335H5.8665C4.7464 1.8335 4.18635 1.8335 3.75852 2.05148C3.3822 2.24323 3.07624 2.54919 2.88449 2.92552C2.6665 3.35334 2.6665 3.91339 2.6665 5.0335V11.9668C2.6665 13.0869 2.6665 13.647 2.88449 14.0748C3.07624 14.4511 3.3822 14.7571 3.75852 14.9488C4.18635 15.1668 4.7464 15.1668 5.8665 15.1668H6.99984M8.6665 7.8335H5.33317M7.33317 10.5002H5.33317M10.6665 5.16683H5.33317M12.8332 11.8335V10.6668C12.8332 10.0225 12.3108 9.50016 11.6665 9.50016C11.0222 9.50016 10.4998 10.0225 10.4998 10.6668V11.8335M10.3998 14.5002H12.9332C13.3065 14.5002 13.4932 14.5002 13.6358 14.4275C13.7613 14.3636 13.8633 14.2616 13.9272 14.1362C13.9998 13.9935 13.9998 13.8069 13.9998 13.4335V12.9002C13.9998 12.5268 13.9998 12.3401 13.9272 12.1975C13.8633 12.0721 13.7613 11.9701 13.6358 11.9062C13.4932 11.8335 13.3065 11.8335 12.9332 11.8335H10.3998C10.0265 11.8335 9.83978 11.8335 9.69718 11.9062C9.57173 11.9701 9.46975 12.0721 9.40583 12.1975C9.33317 12.3401 9.33317 12.5268 9.33317 12.9002V13.4335C9.33317 13.8069 9.33317 13.9935 9.40583 14.1362C9.46975 14.2616 9.57173 14.3636 9.69718 14.4275C9.83978 14.5002 10.0265 14.5002 10.3998 14.5002Z" stroke="#6B004D" stroke-width="1.21" stroke-linecap="round" stroke-linejoin="round"/>
</svg>
