<svg width="16" height="17" viewBox="0 0 16 17" fill="none" xmlns="http://www.w3.org/2000/svg">
<path d="M5.39989 14.6473C4.47331 13.325 3.92822 11.7162 3.92822 9.97914C3.92822 7.72955 5.75084 5.90625 7.99907 5.90625C10.2473 5.90625 12.0699 7.72955 12.0699 9.97914" stroke="#6B004D" stroke-linecap="round" stroke-linejoin="round"/>
<path d="M5.39989 14.6473C4.47331 13.325 3.92822 11.7162 3.92822 9.97914C3.92822 7.72955 5.75084 5.90625 7.99907 5.90625C10.2473 5.90625 12.0699 7.72955 12.0699 9.97914" stroke="#6B004D" stroke-linecap="round" stroke-linejoin="round"/>
<path d="M12.2906 14.041C12.2173 14.0451 12.1453 14.0519 12.0713 14.0519C9.8231 14.0519 8.00049 12.2286 8.00049 9.979" stroke="#6B004D" stroke-linecap="round" stroke-linejoin="round"/>
<path d="M12.2906 14.041C12.2173 14.0451 12.1453 14.0519 12.0713 14.0519C9.8231 14.0519 8.00049 12.2286 8.00049 9.979" stroke="#6B004D" stroke-linecap="round" stroke-linejoin="round"/>
<path d="M8.84627 15.1665C7.11665 14.0878 5.9647 12.1681 5.9647 9.97896C5.9647 8.85416 6.87635 7.94252 8.00047 7.94252C9.12458 7.94252 10.0362 8.85416 10.0362 9.97896C10.0362 11.1038 10.9479 12.0154 12.072 12.0154C13.1961 12.0154 14.1078 11.1038 14.1078 9.97896C14.1078 6.60457 11.3735 3.86963 8.00115 3.86963C4.6288 3.86963 1.89453 6.60457 1.89453 9.97896C1.89453 10.7311 1.9787 11.4635 2.13347 12.1695" stroke="#6B004D" stroke-linecap="round" stroke-linejoin="round"/>
<path d="M8.84627 15.1665C7.11665 14.0878 5.9647 12.1681 5.9647 9.97896C5.9647 8.85416 6.87635 7.94252 8.00047 7.94252C9.12458 7.94252 10.0362 8.85416 10.0362 9.97896C10.0362 11.1038 10.9479 12.0154 12.072 12.0154C13.1961 12.0154 14.1078 11.1038 14.1078 9.97896C14.1078 6.60457 11.3735 3.86963 8.00115 3.86963C4.6288 3.86963 1.89453 6.60457 1.89453 9.97896C1.89453 10.7311 1.9787 11.4635 2.13347 12.1695" stroke="#6B004D" stroke-linecap="round" stroke-linejoin="round"/>
<path d="M13.6838 4.40892C12.2957 2.83203 10.266 1.8335 8.00012 1.8335C5.73424 1.8335 3.70458 2.83203 2.31641 4.40892" stroke="#6B004D" stroke-linecap="round" stroke-linejoin="round"/>
<path d="M13.6838 4.40892C12.2957 2.83203 10.266 1.8335 8.00012 1.8335C5.73424 1.8335 3.70458 2.83203 2.31641 4.40892" stroke="#6B004D" stroke-linecap="round" stroke-linejoin="round"/>
</svg>
