<svg width="31" height="30" viewBox="0 0 31 30" fill="none" xmlns="http://www.w3.org/2000/svg">
<path d="M20.5 6.25L24.25 2.5M24.25 2.5L28 6.25M24.25 2.5V10M16.125 3.75H10.25C8.1498 3.75 7.0997 3.75 6.29754 4.15873C5.59193 4.51825 5.01825 5.09193 4.65873 5.79754C4.25 6.5997 4.25 7.6498 4.25 9.75V20.25C4.25 22.3502 4.25 23.4003 4.65873 24.2025C5.01825 24.9081 5.59193 25.4817 6.29754 25.8413C7.0997 26.25 8.1498 26.25 10.25 26.25H21.75C22.9125 26.25 23.4937 26.25 23.9706 26.1222C25.2647 25.7755 26.2755 24.7647 26.6222 23.4706C26.75 22.9937 26.75 22.4125 26.75 21.25M13.625 10.625C13.625 12.0057 12.5057 13.125 11.125 13.125C9.74429 13.125 8.625 12.0057 8.625 10.625C8.625 9.24429 9.74429 8.125 11.125 8.125C12.5057 8.125 13.625 9.24429 13.625 10.625ZM19.2375 14.8977L8.66394 24.5101C8.0692 25.0507 7.77184 25.3211 7.74553 25.5552C7.72274 25.7582 7.80057 25.9596 7.95398 26.0944C8.13097 26.25 8.53285 26.25 9.33661 26.25H21.07C22.8689 26.25 23.7684 26.25 24.4749 25.9478C25.3618 25.5684 26.0684 24.8618 26.4478 23.9749C26.75 23.2684 26.75 22.3689 26.75 20.57C26.75 19.9647 26.75 19.662 26.6838 19.3802C26.6007 19.026 26.4412 18.6942 26.2166 18.408C26.0378 18.1803 25.8015 17.9912 25.3288 17.6131L21.8323 14.8158C21.3592 14.4374 21.1227 14.2482 20.8622 14.1814C20.6327 14.1225 20.3911 14.1302 20.1657 14.2034C19.9099 14.2864 19.6858 14.4902 19.2375 14.8977Z" stroke="#6B004D" stroke-width="2" stroke-linecap="round" stroke-linejoin="round"/>
</svg>
