<svg width="246" height="90" viewBox="0 0 246 90" fill="none" xmlns="http://www.w3.org/2000/svg">
<path d="M73.6161 45.1269C73.8892 44.8148 74.1623 44.6588 74.4353 44.6588C74.7474 44.6197 74.9815 44.6978 75.1375 44.8928C75.3326 45.0488 75.4106 45.3024 75.3716 45.6535C75.3716 46.0046 75.2155 46.3947 74.9035 46.8238C74.1623 47.838 73.3041 48.8913 72.3288 49.9835C71.3536 51.0368 70.3003 52.0706 69.1691 53.0848C68.0768 54.0991 66.965 55.0548 65.8338 55.952C64.7025 56.8492 63.6102 57.5904 62.557 58.1755C61.3867 58.8387 60.3919 59.1703 59.5727 59.1703C58.7925 59.1703 58.0123 58.6632 57.2322 57.6489C56.53 56.7517 56.1789 55.796 56.1789 54.7817C56.2179 53.7285 56.452 52.4216 56.8811 50.8613C57.1541 49.886 57.5247 48.7352 57.9928 47.4089C58.5 46.0436 58.8901 44.7368 59.1631 43.4885C59.4752 42.2402 59.5727 41.1869 59.4557 40.3287C59.3387 39.4315 58.8315 38.9829 57.9343 38.9829C57.3102 38.9829 56.6275 39.1974 55.8863 39.6265C55.1842 40.0556 54.4625 40.6213 53.7213 41.3234C53.0191 41.9866 52.3365 42.7473 51.6733 43.6055C51.0101 44.4637 50.425 45.3024 49.9179 46.1216C49.6058 47.643 49.2937 49.1448 48.9817 50.6272C48.7086 51.8755 48.416 53.2408 48.1039 54.7232C47.8309 56.1666 47.5578 57.4539 47.2847 58.5851C47.0507 58.7802 46.7971 58.9167 46.5241 58.9947C46.251 59.0728 45.9974 59.1118 45.7634 59.1118C45.4903 59.1118 45.2172 59.0923 44.9442 59.0533C44.6321 58.9752 44.3395 58.8582 44.0665 58.7022C43.8324 58.5461 43.5983 58.3316 43.3643 58.0585C43.1302 57.8245 42.9547 57.4929 42.8377 57.0638C44.5931 49.847 45.9779 44.0541 46.9922 39.685C48.0064 35.316 48.7866 31.9807 49.3327 29.6791C49.9569 26.9484 50.386 25.0565 50.6201 24.0032C50.7371 23.262 50.8346 22.5404 50.9126 21.8382C50.9906 21.214 51.0296 20.5704 51.0296 19.9072C51.0296 19.2441 50.9711 18.6394 50.8541 18.0933C51.1662 17.8982 51.4978 17.7422 51.8488 17.6252C52.2389 17.5081 52.6095 17.4106 52.9606 17.3326C53.3897 17.2156 53.8188 17.118 54.2479 17.04C54.677 16.962 55.0671 16.923 55.4182 16.923C55.7303 16.923 56.0229 16.962 56.2959 17.04C56.569 17.079 56.7445 17.1961 56.8226 17.3911C57.0566 17.5862 57.1541 17.9763 57.1151 18.5614C57.1151 19.1465 57.0761 19.7512 56.9981 20.3753C56.8421 21.1165 56.6665 21.9162 56.4715 22.7744C55.6523 25.9342 54.7356 29.0159 53.7213 32.0197C52.7071 34.9844 51.7708 38.1637 50.9126 41.5575C51.4197 40.7773 52.0244 39.9776 52.7266 39.1584C53.4287 38.3392 54.1894 37.598 55.0086 36.9349C55.8668 36.2327 56.764 35.6671 57.7003 35.238C58.6365 34.7698 59.6312 34.5358 60.6845 34.5358C61.2306 34.5358 61.7378 34.6333 62.2059 34.8284C62.713 34.9844 63.1421 35.277 63.4932 35.7061C63.8833 36.0962 64.1759 36.6423 64.3709 37.3445C64.5659 38.0076 64.644 38.8463 64.605 39.8606C64.605 40.4847 64.5269 41.1284 64.3709 41.7916C64.2539 42.4547 64.0783 43.1959 63.8443 44.0151C63.6102 44.7953 63.2981 45.673 62.908 46.6482C62.557 47.6235 62.1279 48.7547 61.6207 50.0421C61.2696 50.9393 60.9966 51.7 60.8015 52.3241C60.6065 52.9483 60.6455 53.4944 60.9186 53.9625C61.2696 54.5867 61.9523 54.7427 62.9666 54.4306C64.0198 54.0795 65.5802 53.0653 67.6477 51.3879C68.1158 50.9978 68.6424 50.5102 69.2276 49.925C69.8127 49.3399 70.3784 48.7547 70.9245 48.1696C71.4706 47.5455 71.9777 46.9603 72.4459 46.4142C72.914 45.868 73.3041 45.4389 73.6161 45.1269ZM101.352 46.3557C100.806 47.1359 100.104 48.1111 99.2454 49.2814C98.3872 50.4127 97.49 51.5634 96.5537 52.7337C95.6565 53.865 94.7593 54.9182 93.8621 55.8935C93.0039 56.8297 92.2822 57.4929 91.6971 57.883C91.307 58.117 90.8583 58.3121 90.3512 58.4681C89.8441 58.6242 89.3175 58.7217 88.7713 58.7607C88.2642 58.7997 87.7766 58.7607 87.3085 58.6437C86.8404 58.5656 86.4308 58.4096 86.0797 58.1755C85.7286 57.9025 85.436 57.5124 85.202 57.0053C85.0069 56.5762 84.8119 56.0105 84.6168 55.3083C84.4608 54.6062 84.4023 53.7285 84.4413 52.6752C83.5051 54.2356 82.4713 55.4449 81.34 56.3031C80.2088 57.1223 79.136 57.7269 78.1217 58.117C76.9515 58.5461 75.7812 58.7997 74.6109 58.8777C74.0648 58.8777 73.4796 58.6827 72.8555 58.2926C72.2313 57.9415 71.7047 57.3758 71.2756 56.5957C70.8465 55.7765 70.5734 54.7427 70.4564 53.4944C70.3394 52.2071 70.4954 50.6857 70.9245 48.9303C71.4706 46.5507 72.3288 44.3857 73.4991 42.4352C74.7084 40.4847 76.0152 38.8268 77.4196 37.4615C78.8239 36.0572 80.2088 35.0039 81.5741 34.3017C82.9394 33.5996 84.0707 33.2875 84.9679 33.3655C86.0212 33.5606 86.8794 33.8726 87.5425 34.3017C88.0887 34.6918 88.4398 35.277 88.5958 36.0572C88.7908 36.7983 88.4788 37.7931 87.6596 39.0414C88.2057 38.9244 88.6543 38.8463 89.0054 38.8073C89.3955 38.7683 89.6881 38.7488 89.8831 38.7488C90.1172 38.7488 90.2732 38.7683 90.3512 38.8073C90.3902 38.8853 90.4097 39.0609 90.4097 39.334C90.4097 39.568 90.3512 40.0166 90.2342 40.6798C90.1172 41.3429 89.9416 42.2402 89.7076 43.3714C89.4735 44.5027 89.1614 45.9656 88.7713 47.76C88.6933 48.1111 88.6153 48.4427 88.5373 48.7547C88.4983 49.0278 88.4398 49.3204 88.3617 49.6325C88.3227 49.9055 88.2642 50.2371 88.1862 50.6272C88.1082 51.0173 88.0107 51.5049 87.8936 52.0901C87.8546 52.4411 87.8351 52.8312 87.8351 53.2603C87.8741 53.6504 87.9521 54.021 88.0692 54.3721C88.1862 54.7232 88.3617 55.0158 88.5958 55.2498C88.8689 55.4449 89.2395 55.5424 89.7076 55.5424C90.0977 55.5424 90.6048 55.3083 91.2289 54.8402C91.8531 54.3331 92.5162 53.709 93.2184 52.9678C93.9206 52.1876 94.6423 51.3489 95.3834 50.4517C96.1636 49.5154 96.8853 48.6182 97.5485 47.76C98.2116 46.9018 98.7968 46.1411 99.3039 45.478C99.85 44.8148 100.24 44.3272 100.474 44.0151C100.786 43.664 101.098 43.469 101.41 43.43C101.722 43.3519 101.957 43.43 102.113 43.664C102.269 43.8981 102.288 44.2492 102.171 44.7173C102.093 45.1854 101.82 45.7315 101.352 46.3557ZM84.2072 48.9303C84.4023 48.1501 84.6363 47.2334 84.9094 46.1801C85.1825 45.1269 85.4165 44.1126 85.6116 43.1374C85.8066 42.1621 85.9431 41.3624 86.0212 40.7383C86.1382 40.0751 86.1187 39.7631 85.9627 39.8021C85.7676 39.8411 85.5531 39.8996 85.319 39.9776C85.124 40.0556 84.8704 40.1141 84.5583 40.1532C84.2462 40.1922 83.9342 40.2507 83.6221 40.3287C83.9342 39.7045 84.1097 39.1974 84.1487 38.8073C84.2267 38.3782 84.2462 38.0466 84.2072 37.8126C84.1682 37.5395 84.0902 37.325 83.9732 37.1689C83.5441 36.8178 82.7834 37.1104 81.6911 38.0466C80.6379 38.9439 79.4091 40.6213 78.0047 43.0789C77.4196 44.0931 76.9515 45.1854 76.6004 46.3557C76.2493 47.4869 75.9957 48.5597 75.8397 49.5739C75.7227 50.5882 75.7032 51.4854 75.7812 52.2656C75.8592 53.0068 76.0152 53.4944 76.2493 53.7285C76.6784 54.1576 77.166 54.3721 77.7121 54.3721C78.2583 54.3331 78.8044 54.1771 79.3505 53.904C79.9357 53.5919 80.5013 53.2018 81.0475 52.7337C81.6326 52.2656 82.1397 51.778 82.5688 51.2709C83.0369 50.7637 83.4075 50.2956 83.6806 49.8665C83.9927 49.4374 84.1682 49.1253 84.2072 48.9303ZM127.449 46.3557C126.552 47.838 125.518 49.3789 124.348 50.9783C123.217 52.5387 122.007 53.982 120.72 55.3083C119.433 56.5957 118.106 57.6684 116.741 58.5266C115.376 59.3848 114.01 59.8139 112.645 59.8139C111.28 59.8139 110.285 59.3458 109.661 58.4096C109.076 57.5124 108.803 56.4981 108.842 55.3669C108.842 54.8597 108.881 54.4111 108.959 54.021C109.076 53.6309 109.193 53.2799 109.31 52.9678C109.427 52.6557 109.544 52.3436 109.661 52.0315C109.817 51.6805 109.953 51.2904 110.071 50.8613C110.227 50.3541 110.227 49.9055 110.071 49.5154C109.953 49.0863 109.797 48.7157 109.602 48.4037C109.251 48.7938 108.842 49.1448 108.374 49.4569C107.945 49.73 107.398 49.8665 106.735 49.8665C106.267 49.8665 105.838 49.652 105.448 49.2229C105.058 48.7547 104.863 48.1891 104.863 47.526C104.863 46.9798 104.98 46.5312 105.214 46.1801C105.487 45.829 105.779 45.556 106.092 45.3609C106.443 45.1659 106.794 45.0293 107.145 44.9513C107.496 44.8733 107.788 44.8343 108.023 44.8343C108.14 44.8343 108.374 44.8538 108.725 44.8928C109.115 44.9318 109.524 44.9903 109.953 45.0684C111.358 43.9371 112.353 42.9228 112.938 42.0256C113.562 41.0894 113.62 40.2507 113.113 39.5095C112.801 39.0024 112.411 38.7488 111.943 38.7488C111.475 38.7098 110.987 38.8268 110.48 39.0999C109.973 39.334 109.466 39.646 108.959 40.0361C108.491 40.4262 108.062 40.7968 107.671 41.1479C106.891 41.9281 106.014 42.8643 105.038 43.9566C104.102 45.0098 103.322 45.8876 102.698 46.5897C102.425 47.76 102.152 48.9888 101.879 50.2761C101.644 51.4074 101.371 52.6947 101.059 54.1381C100.786 55.5424 100.494 57.0053 100.182 58.5266C99.9476 58.6437 99.694 58.7217 99.4209 58.7607C99.1869 58.8387 98.9723 58.8972 98.7773 58.9362C98.5432 58.9752 98.3092 58.9947 98.0751 58.9947C97.763 58.9947 97.4705 58.9752 97.1974 58.9362C96.9243 58.9362 96.7098 58.8387 96.5537 58.6437C96.3587 58.4876 96.2612 58.2146 96.2612 57.8245C96.2222 57.4344 96.3197 56.8882 96.5537 56.1861C96.8658 55.1718 97.2559 53.826 97.724 52.1486C98.1921 50.4322 98.6797 48.5597 99.1869 46.5312C99.694 44.5027 100.201 42.3962 100.708 40.2117C101.254 37.9881 101.762 35.8816 102.23 33.8921C102.698 31.8636 103.088 30.0497 103.4 28.4503C103.751 26.8119 104.005 25.5246 104.161 24.5884C104.278 23.5741 104.395 22.5989 104.512 21.6627C104.59 20.8825 104.629 20.1218 104.629 19.3806C104.668 18.6004 104.629 18.0153 104.512 17.6252C104.707 17.4301 104.98 17.2546 105.331 17.0985C105.682 16.9425 106.072 16.8255 106.501 16.7475C106.93 16.6304 107.437 16.5329 108.023 16.4549C108.686 16.3769 109.232 16.3574 109.661 16.3964C110.129 16.4354 110.461 16.6304 110.656 16.9815C110.89 17.3716 110.929 18.0348 110.773 18.971C110.656 19.8682 110.383 21.136 109.953 22.7744C109.407 24.8809 108.842 26.8119 108.257 28.5673C107.71 30.2838 107.164 31.9026 106.618 33.424C106.111 34.9454 105.604 36.4277 105.097 37.8711C104.629 39.2754 104.2 40.7188 103.809 42.2012C104.59 41.0699 105.565 39.8801 106.735 38.6318C107.905 37.3445 109.232 36.2912 110.714 35.472C112.275 34.6528 113.562 34.2432 114.576 34.2432C115.824 34.2432 116.722 34.6723 117.268 35.5305C117.814 36.3497 118.067 37.325 118.028 38.4562C117.989 39.3535 117.755 40.1922 117.326 40.9724C116.936 41.7135 116.449 42.4157 115.863 43.0789C115.278 43.703 114.654 44.2492 113.991 44.7173C113.328 45.1854 112.762 45.5755 112.294 45.8876C112.84 46.1996 113.308 46.6287 113.698 47.1749C114.128 47.682 114.323 48.3256 114.284 49.1058C114.245 50.1591 114.03 51.0953 113.64 51.9145C113.289 52.6947 113.113 53.4164 113.113 54.0795C113.152 54.5867 113.25 54.9573 113.406 55.1913C113.601 55.4254 113.991 55.5424 114.576 55.5424C115.629 55.5424 116.722 55.0938 117.853 54.1966C119.023 53.2994 120.115 52.2656 121.13 51.0953C122.144 49.925 123.08 48.7743 123.938 47.643C124.797 46.4727 125.46 45.6145 125.928 45.0684C126.591 44.3662 127.137 44.1906 127.566 44.5417C128.034 44.8538 127.995 45.4584 127.449 46.3557ZM141.142 48.6962C140.751 50.1786 140.225 51.5634 139.562 52.8507C138.899 54.1381 138.099 55.2498 137.163 56.1861C136.265 57.1223 135.232 57.844 134.061 58.3511C132.93 58.8972 131.682 59.1703 130.316 59.1703C128.717 59.1703 127.449 58.8192 126.513 58.117C125.616 57.4539 124.933 56.6152 124.465 55.6009C124.036 54.5867 123.782 53.4749 123.704 52.2656C123.587 51.0563 123.529 49.925 123.529 48.8718C123.529 48.1306 123.626 47.3114 123.821 46.4142C123.977 45.517 124.211 44.6002 124.524 43.664C124.836 42.7278 125.226 41.7916 125.694 40.8553C126.201 39.9191 126.786 39.0609 127.449 38.2807C127.683 37.6175 128.034 37.0324 128.503 36.5253C129.01 36.0181 129.575 35.6085 130.199 35.2965C130.863 34.9454 131.565 34.6918 132.306 34.5358C133.047 34.3407 133.769 34.2432 134.471 34.2432C134.588 34.2432 134.686 34.2627 134.764 34.3017C134.881 34.3407 134.998 34.3797 135.115 34.4188C135.622 34.4578 136.246 34.6528 136.987 35.0039C137.767 35.355 138.508 35.8816 139.211 36.5838C139.952 37.286 140.576 38.1832 141.083 39.2754C141.59 40.3287 141.844 41.616 141.844 43.1374C141.844 43.4495 141.824 43.8396 141.785 44.3077C141.746 44.7368 141.707 45.1074 141.668 45.4194C142.565 45.0684 143.502 44.6392 144.477 44.1321C145.452 43.625 146.388 43.0984 147.286 42.5522C148.222 41.9671 149.08 41.382 149.86 40.7968C150.64 40.2117 151.265 39.685 151.733 39.2169C152.123 38.8658 152.454 38.6708 152.727 38.6318C153 38.5928 153.196 38.6708 153.313 38.8658C153.43 39.0609 153.449 39.334 153.371 39.685C153.293 40.0361 153.078 40.4262 152.727 40.8553C152.532 41.0894 152.025 41.5575 151.206 42.2597C150.426 42.9618 149.49 43.7225 148.397 44.5417C147.305 45.3609 146.115 46.1606 144.828 46.9408C143.541 47.721 142.312 48.3061 141.142 48.6962ZM131.253 39.8021C131.136 40.1532 131.077 40.5237 131.077 40.9138C131.077 41.538 131.116 42.2012 131.194 42.9033C131.272 43.5665 131.467 44.1711 131.779 44.7173C132.091 45.2634 132.579 45.7315 133.242 46.1216C133.944 46.4727 134.9 46.6482 136.109 46.6482C136.304 46.6482 136.499 46.6482 136.695 46.6482C136.89 46.6092 137.085 46.5702 137.28 46.5312C137.397 46.0241 137.494 45.5755 137.572 45.1854C137.689 44.7563 137.748 44.3857 137.748 44.0736C137.826 43.3324 137.826 42.5717 137.748 41.7916C137.67 41.0114 137.514 40.3092 137.28 39.685C137.085 39.0219 136.812 38.4953 136.46 38.1052C136.148 37.6761 135.758 37.4615 135.29 37.4615C134.549 37.4615 133.827 37.6761 133.125 38.1052C132.462 38.4953 131.838 39.0609 131.253 39.8021ZM127.508 50.1006C127.508 50.8027 127.547 51.5049 127.625 52.2071C127.703 52.8703 127.859 53.4749 128.093 54.021C128.327 54.5282 128.639 54.9573 129.029 55.3083C129.419 55.6204 129.926 55.7765 130.551 55.7765C131.253 55.7765 131.896 55.6204 132.481 55.3083C133.067 54.9573 133.593 54.5282 134.061 54.021C134.529 53.4749 134.939 52.8703 135.29 52.2071C135.68 51.5049 136.012 50.7832 136.285 50.0421C136.012 50.0811 135.739 50.1201 135.466 50.1591C135.232 50.1591 134.959 50.1591 134.647 50.1591C133.164 50.1591 131.877 49.73 130.785 48.8718C129.731 47.9746 128.912 46.8433 128.327 45.478C128.093 46.2972 127.898 47.0968 127.742 47.877C127.586 48.6572 127.508 49.3984 127.508 50.1006ZM148.748 69.0592C147.812 69.0592 147.247 68.9422 147.052 68.7081C146.817 68.5131 146.778 68.1035 146.934 67.4793C146.974 67.2843 147.169 66.4065 147.52 64.8462C147.871 63.3248 148.3 61.4523 148.807 59.2288C149.353 57.0443 149.919 54.6647 150.504 52.0901C151.128 49.5154 151.713 47.0968 152.259 44.8343C151.44 44.9123 150.835 44.8538 150.445 44.6588C150.055 44.4247 149.86 44.1321 149.86 43.781C149.899 43.3909 150.114 43.0008 150.504 42.6108C150.933 42.2207 151.538 41.8891 152.318 41.616C152.474 41.538 152.708 41.46 153.02 41.382C153.215 40.7188 153.391 40.0361 153.547 39.334C153.703 38.7488 153.859 38.1247 154.015 37.4615C154.171 36.7983 154.327 36.1547 154.483 35.5305L158.579 18.0348C158.813 17.1376 159.164 16.4744 159.632 16.0453C160.139 15.5772 161.056 15.1871 162.382 14.875C163.475 14.6019 164.235 14.5044 164.664 14.5824C165.093 14.6214 165.288 14.7385 165.249 14.9335C165.132 15.3626 164.84 16.3964 164.372 18.0348C163.904 19.6732 163.338 21.6822 162.675 24.0617C162.051 26.4023 161.368 28.9964 160.627 31.8441C159.886 34.6528 159.164 37.442 158.462 40.2117C160.802 39.8606 163.65 39.568 167.005 39.334C168.292 39.1779 169.541 39.0804 170.75 39.0414C171.998 39.0024 173.188 39.0024 174.319 39.0414C174.865 36.9349 175.392 34.8284 175.899 32.7218C176.445 30.6153 176.952 28.6649 177.42 26.8704C177.889 25.076 178.298 23.4961 178.649 22.1308C179.039 20.7264 179.332 19.6927 179.527 19.0295C179.761 18.2883 179.976 17.6837 180.171 17.2156C180.405 16.7475 180.658 16.3769 180.931 16.1038C181.243 15.8307 181.594 15.6357 181.985 15.5187C182.375 15.4016 182.823 15.3041 183.33 15.2261C183.603 15.2261 183.935 15.2066 184.325 15.1676C184.637 15.1676 185.008 15.1676 185.437 15.1676C185.866 15.1286 186.354 15.1481 186.9 15.2261C185.417 19.2051 184.033 23.2425 182.745 27.3385C181.497 31.3955 180.327 35.355 179.234 39.2169C179.937 39.2949 180.541 39.3535 181.048 39.3925C181.594 39.4315 182.024 39.49 182.336 39.568C183.272 39.7241 183.857 39.9776 184.091 40.3287C184.364 40.6798 184.286 41.1869 183.857 41.8501L183.155 42.7278C182.921 43.0399 182.628 43.4104 182.277 43.8396C181.926 44.2296 181.477 44.6783 180.931 45.1854C180.619 45.0684 180.288 44.9513 179.937 44.8343C179.624 44.7173 179.312 44.6002 179 44.4832C178.61 44.3662 178.24 44.2492 177.889 44.1321C177.615 45.0684 177.362 45.9851 177.128 46.8823C176.894 47.7405 176.679 48.6182 176.484 49.5154C176.016 51.4269 175.567 53.3969 175.138 55.4254C174.787 57.1808 174.417 59.1118 174.027 61.2183C173.676 63.3638 173.402 65.4703 173.207 67.5378C172.895 67.6939 172.583 67.7914 172.271 67.8304C171.959 67.9084 171.686 67.9669 171.452 68.0059C171.179 68.0449 170.906 68.084 170.633 68.123H170.574H170.457H170.34C170.184 68.123 170.028 68.123 169.872 68.123C169.716 68.123 169.56 68.084 169.404 68.0059C169.209 67.9669 169.014 67.9084 168.819 67.8304C168.624 67.7524 168.429 67.6744 168.234 67.5963C168.078 67.5573 167.902 67.4793 167.707 67.3623C168.019 66.075 168.253 64.8657 168.409 63.7344C168.604 62.6031 168.741 61.6084 168.819 60.7502C168.936 59.7359 169.014 58.8387 169.053 58.0585C169.092 57.0443 168.975 55.9325 168.702 54.7232C168.468 53.5139 168.078 52.3241 167.532 51.1538C167.024 49.9835 166.381 48.8913 165.601 47.877C164.859 46.8628 164.001 46.0046 163.026 45.3024C162.051 44.6392 161.114 44.2101 160.217 44.0151C159.359 43.82 158.481 43.7615 157.584 43.8396C157.311 45.0098 157.057 46.1411 156.823 47.2334C156.589 48.3256 156.394 49.3789 156.238 50.3931C155.809 52.6557 155.4 54.8597 155.009 57.0053C154.697 58.8387 154.366 60.7307 154.015 62.6811C153.703 64.6706 153.469 66.3675 153.313 67.7719C152.688 68.084 152.103 68.318 151.557 68.474C151.011 68.6691 150.523 68.8056 150.094 68.8836C149.626 69.0007 149.178 69.0592 148.748 69.0592ZM171.92 43.0789C170.555 42.9228 169.248 42.8448 168 42.8448C166.79 42.8058 165.718 42.7863 164.781 42.7863C165.562 43.2154 166.244 43.781 166.829 44.4832C167.453 45.1854 168.097 45.9851 168.76 46.8823C169.384 47.7015 169.892 48.5987 170.282 49.5739C170.672 50.5492 171.003 51.4854 171.276 52.3826C171.588 50.7442 171.92 49.1448 172.271 47.5845C172.622 46.0241 172.954 44.5612 173.266 43.1959C173.032 43.1569 172.798 43.1374 172.564 43.1374C172.369 43.0984 172.154 43.0789 171.92 43.0789ZM193.57 58.9362C192.088 58.9362 190.879 58.7022 189.942 58.2341C189.006 57.7659 188.265 57.2003 187.719 56.5371C187.212 55.835 186.841 55.0938 186.607 54.3136C186.412 53.4944 186.315 52.7532 186.315 52.0901C186.315 50.9198 186.412 49.691 186.607 48.4037C186.802 47.0773 187.036 45.868 187.309 44.7758C187.582 43.6445 187.816 42.6888 188.012 41.9086C188.246 41.1284 188.402 40.6408 188.48 40.4457C188.831 39.3145 189.279 38.3392 189.825 37.52C190.411 36.6618 191.21 36.0767 192.225 35.7646C192.615 35.6866 193.024 35.6085 193.453 35.5305C193.804 35.4915 194.155 35.472 194.507 35.472C194.897 35.472 195.248 35.5305 195.56 35.6476C194.507 38.3392 193.668 40.5823 193.044 42.3767C192.459 44.1711 192.01 45.634 191.698 46.7653C191.347 48.0526 191.132 49.0863 191.054 49.8665C190.859 51.6219 191.015 52.9483 191.522 53.8455C192.029 54.7427 193.063 55.1913 194.624 55.1913C195.638 55.1913 196.613 54.8207 197.549 54.0795C198.486 53.2994 199.344 52.3046 200.124 51.0953C200.007 50.4712 199.948 49.8275 199.948 49.1643C199.948 47.916 200.046 46.7068 200.241 45.5365C200.475 44.3272 200.729 43.2154 201.002 42.2012C201.314 41.1479 201.626 40.2117 201.938 39.3925C202.289 38.5733 202.582 37.9296 202.816 37.4615C203.245 36.5253 203.635 35.9596 203.986 35.7646C204.337 35.5305 204.903 35.394 205.683 35.355C205.995 35.316 206.248 35.316 206.443 35.355C206.678 35.355 206.873 35.3745 207.029 35.4135C207.497 35.5305 207.731 35.7646 207.731 36.1157C207.731 36.7398 207.692 37.6761 207.614 38.9244C207.536 40.1727 207.302 41.46 206.912 42.7863C206.639 43.8786 206.365 44.8148 206.092 45.595C205.858 46.3362 205.624 46.9798 205.39 47.526C205.156 48.0331 204.922 48.4622 204.688 48.8133C204.454 49.1253 204.239 49.4179 204.044 49.691C204.122 50.8613 204.22 51.7975 204.337 52.4997C204.454 53.2018 204.591 53.748 204.747 54.1381C204.942 54.4891 205.156 54.7427 205.39 54.8987C205.663 55.0158 205.956 55.0743 206.268 55.0743C206.814 55.0743 207.458 54.8207 208.199 54.3136C208.94 53.7675 209.701 53.1043 210.481 52.3241C211.3 51.5049 212.1 50.6272 212.88 49.691C213.699 48.7157 214.44 47.799 215.104 46.9408C215.767 46.0826 216.332 45.3414 216.801 44.7173C217.269 44.0541 217.561 43.6445 217.678 43.4885C217.951 43.1374 218.205 42.9228 218.439 42.8448C218.712 42.7668 218.927 42.8058 219.083 42.9618C219.239 43.0789 219.317 43.2934 219.317 43.6055C219.356 43.8786 219.278 44.1906 219.083 44.5417C218.302 46.0241 217.327 47.604 216.157 49.2814C215.026 50.9198 213.797 52.4411 212.47 53.8455C211.183 55.2498 209.876 56.4201 208.55 57.3563C207.224 58.2926 205.975 58.7607 204.805 58.7607C203.752 58.7607 202.913 58.4096 202.289 57.7074C201.704 56.9662 201.197 55.913 200.768 54.5477C199.87 55.952 198.817 57.0443 197.608 57.8245C196.399 58.5656 195.053 58.9362 193.57 58.9362ZM227.801 24.4713C227.216 26.8119 226.553 29.055 225.812 31.2005C225.11 33.307 224.368 35.2965 223.588 37.1689C222.847 39.0024 222.086 40.6798 221.306 42.2012C220.565 43.7225 219.902 45.0488 219.317 46.1801C218.927 48.9888 218.927 51.2514 219.317 52.9678C219.707 54.6842 220.467 55.5424 221.599 55.5424C222.535 55.5424 223.452 55.1133 224.349 54.2551C225.246 53.3969 226.046 52.3436 226.748 51.0953C227.45 49.847 228.035 48.5207 228.503 47.1164C229.01 45.673 229.323 44.3857 229.44 43.2544C228.698 43.0594 228.074 42.7278 227.567 42.2597C227.06 41.7525 226.806 41.0894 226.806 40.2702C226.806 39.7241 226.962 39.2169 227.275 38.7488C227.587 38.2417 227.957 37.8126 228.386 37.4615C228.815 37.1104 229.284 36.8373 229.791 36.6423C230.298 36.4473 230.766 36.3497 231.195 36.3497C231.858 36.3497 232.424 36.7788 232.892 37.637C233.36 38.4562 233.672 39.5095 233.828 40.7968C235.389 40.7578 237.027 40.5237 238.743 40.0946C240.46 39.6655 242.079 39.1194 243.6 38.4562C244.029 38.2612 244.38 38.2027 244.653 38.2807C244.926 38.3587 245.102 38.5148 245.18 38.7488C245.297 38.9829 245.297 39.2559 245.18 39.568C245.063 39.8411 244.829 40.0556 244.478 40.2117C243.581 40.7188 242.644 41.1869 241.669 41.616C240.733 42.0061 239.797 42.3377 238.86 42.6108C237.924 42.8838 237.027 43.0984 236.169 43.2544C235.311 43.4104 234.53 43.4885 233.828 43.4885C233.672 45.0488 233.184 46.7458 232.365 48.5792C231.546 50.3736 230.551 52.0511 229.381 53.6114C228.211 55.1328 226.904 56.4006 225.461 57.4149C224.056 58.4291 222.671 58.9362 221.306 58.9362C220.877 58.9362 220.311 58.8777 219.609 58.7607C218.907 58.6437 218.224 58.2341 217.561 57.5319C216.898 56.8297 216.332 55.7179 215.864 54.1966C215.396 52.6362 215.201 50.4322 215.279 47.5845C215.318 45.673 215.533 43.6445 215.923 41.499C216.313 39.3535 216.781 37.2079 217.327 35.0624C217.873 32.9169 218.478 30.8494 219.141 28.8599C219.843 26.8314 220.506 25.0175 221.131 23.4181C221.755 21.7797 222.32 20.4144 222.827 19.3221C223.374 18.2298 223.783 17.5276 224.056 17.2156C224.407 16.7865 224.817 16.4744 225.285 16.2793C225.753 16.0453 226.202 15.8892 226.631 15.8112C227.099 15.6942 227.528 15.6552 227.918 15.6942C228.308 15.7332 228.581 15.7917 228.737 15.8697C228.971 16.0258 229.03 16.884 228.913 18.4444C228.835 20.0048 228.464 22.0137 227.801 24.4713Z" fill="#FF31C5"/>
<ellipse cx="132.162" cy="70.0073" rx="3.3807" ry="5.07106" fill="#FF31C5"/>
<g clip-path="url(#clip0_2584_2484)">
<path d="M31.038 59.2321L10.4794 34.5059C8.06477 31.6013 6.92487 27.9296 7.27115 24.1707C7.61743 20.4117 9.40893 17.0102 12.3136 14.5955L15.5016 11.9454L36.0598 36.6756C38.4744 39.5803 39.6143 43.2519 39.268 47.0109C38.9217 50.7698 37.1303 54.1714 34.2256 56.586L31.0376 59.2362L31.038 59.2321ZM15.0995 16.3095L14.2947 16.9786C12.0285 18.8625 10.6294 21.5196 10.359 24.4551C10.0886 27.3907 10.9786 30.2587 12.8625 32.5249L31.4397 54.872L32.2445 54.2029C34.5107 52.3191 35.9098 49.6619 36.1802 46.7264C36.4506 43.7909 35.5602 40.927 33.6767 38.6567L15.0995 16.3095Z" fill="#FF31C5" stroke="#FF31C5" stroke-width="1.39157"/>
<path d="M29.3535 28.0649C26.3562 27.7888 23.464 26.3722 21.3932 23.8812L13.1176 13.9261L14.3092 12.9356C21.4045 7.03728 31.9773 8.01127 37.8756 15.1066L42.9666 21.2307L37.9441 25.4059C35.4531 27.4767 32.3507 28.341 29.3535 28.0649ZM17.542 14.396L23.7804 21.9005C26.8305 25.5696 32.2981 26.0733 35.9671 23.0232L38.6065 20.829L35.4966 17.088C31.0262 11.7103 23.2598 10.6503 17.5461 14.3964L17.542 14.396Z" fill="#FF31C5" stroke="#FF31C5" stroke-width="1.39157"/>
<path d="M19.9964 62.0304C15.7269 61.6371 11.611 59.622 8.6622 56.0703L3.57125 49.9461L8.59373 45.771C11.0083 43.7637 14.0602 42.8159 17.1851 43.1037C20.31 43.3916 23.1374 44.8811 25.1446 47.2957L33.4202 57.2507L32.2287 58.2412C28.681 61.1904 24.2617 62.4234 19.9964 62.0304ZM7.93952 50.3486L11.0494 54.0896C15.5199 59.4673 23.2859 60.5315 29 56.7812L22.7615 49.2767C21.285 47.5006 19.2021 46.4036 16.9006 46.1916C14.5992 45.9796 12.3509 46.6776 10.5748 48.1541L7.9354 50.3482L7.93952 50.3486Z" fill="#FF31C5" stroke="#FF31C5" stroke-width="1.39157"/>
</g>
<defs>
<clipPath id="clip0_2584_2484">
<rect width="41.6829" height="58.3808" fill="white" transform="translate(5.35555 3.95905) rotate(5.26333)"/>
</clipPath>
</defs>
</svg>
