<svg width="16" height="17" viewBox="0 0 16 17" fill="none" xmlns="http://www.w3.org/2000/svg">
<path d="M8.00016 10.5002C9.10473 10.5002 10.0002 9.60473 10.0002 8.50016C10.0002 7.39559 9.10473 6.50016 8.00016 6.50016C6.89559 6.50016 6.00016 7.39559 6.00016 8.50016C6.00016 9.60473 6.89559 10.5002 8.00016 10.5002Z" stroke="#6B004D" stroke-width="1.21" stroke-linecap="round" stroke-linejoin="round"/>
<path d="M12.485 10.3183C12.4043 10.5011 12.3803 10.7039 12.4159 10.9005C12.4516 11.0971 12.5453 11.2785 12.685 11.4214L12.7214 11.4577C12.8341 11.5703 12.9235 11.704 12.9845 11.8511C13.0455 11.9983 13.0769 12.156 13.0769 12.3153C13.0769 12.4746 13.0455 12.6323 12.9845 12.7795C12.9235 12.9266 12.8341 13.0603 12.7214 13.1729C12.6088 13.2856 12.4751 13.375 12.328 13.436C12.1808 13.497 12.0231 13.5284 11.8638 13.5284C11.7045 13.5284 11.5468 13.497 11.3996 13.436C11.2525 13.375 11.1188 13.2856 11.0062 13.1729L10.9699 13.1365C10.827 12.9968 10.6456 12.9031 10.449 12.8674C10.2524 12.8318 10.0496 12.8559 9.86683 12.9365C9.68758 13.0134 9.5347 13.1409 9.42702 13.3035C9.31933 13.4661 9.26155 13.6567 9.26077 13.8517V13.9547C9.26077 14.2762 9.13306 14.5845 8.90575 14.8118C8.67843 15.0391 8.37012 15.1668 8.04865 15.1668C7.72717 15.1668 7.41887 15.0391 7.19155 14.8118C6.96423 14.5845 6.83653 14.2762 6.83653 13.9547V13.9002C6.83183 13.6996 6.7669 13.505 6.65017 13.3418C6.53344 13.1786 6.37031 13.0543 6.18198 12.985C5.99918 12.9043 5.79641 12.8803 5.59981 12.9159C5.4032 12.9516 5.22179 13.0453 5.07895 13.185L5.04259 13.2214C4.93001 13.3341 4.79633 13.4235 4.64918 13.4845C4.50203 13.5455 4.3443 13.5769 4.18501 13.5769C4.02572 13.5769 3.86799 13.5455 3.72084 13.4845C3.57369 13.4235 3.44001 13.3341 3.32744 13.2214C3.21474 13.1088 3.12533 12.9751 3.06433 12.828C3.00333 12.6808 2.97194 12.5231 2.97194 12.3638C2.97194 12.2045 3.00333 12.0468 3.06433 11.8996C3.12533 11.7525 3.21474 11.6188 3.32744 11.5062L3.3638 11.4699C3.50352 11.327 3.59725 11.1456 3.63289 10.949C3.66854 10.7524 3.64448 10.5496 3.5638 10.3668C3.48697 10.1876 3.35941 10.0347 3.19681 9.92702C3.03421 9.81933 2.84367 9.76155 2.64865 9.76077H2.54562C2.22414 9.76077 1.91584 9.63306 1.68852 9.40575C1.4612 9.17843 1.3335 8.87012 1.3335 8.54865C1.3335 8.22717 1.4612 7.91887 1.68852 7.69155C1.91584 7.46423 2.22414 7.33653 2.54562 7.33653H2.60016C2.80077 7.33183 2.99532 7.2669 3.15853 7.15017C3.32173 7.03344 3.44605 6.87031 3.51531 6.68198C3.59599 6.49918 3.62006 6.29641 3.58441 6.09981C3.54876 5.9032 3.45503 5.72179 3.31531 5.57895L3.27895 5.54259C3.16625 5.43001 3.07685 5.29633 3.01585 5.14918C2.95485 5.00203 2.92345 4.8443 2.92345 4.68501C2.92345 4.52572 2.95485 4.36799 3.01585 4.22084C3.07685 4.07369 3.16625 3.94001 3.27895 3.82744C3.39152 3.71474 3.52521 3.62533 3.67236 3.56433C3.81951 3.50333 3.97723 3.47194 4.13653 3.47194C4.29582 3.47194 4.45355 3.50333 4.6007 3.56433C4.74785 3.62533 4.88153 3.71474 4.9941 3.82744L5.03047 3.8638C5.1733 4.00352 5.35472 4.09725 5.55132 4.13289C5.74792 4.16854 5.9507 4.14448 6.1335 4.0638H6.18198C6.36124 3.98697 6.51411 3.85941 6.6218 3.69681C6.72948 3.53421 6.78726 3.34367 6.78804 3.14865V3.04562C6.78804 2.72414 6.91575 2.41584 7.14306 2.18852C7.37038 1.9612 7.67869 1.8335 8.00016 1.8335C8.32164 1.8335 8.62995 1.9612 8.85726 2.18852C9.08458 2.41584 9.21228 2.72414 9.21228 3.04562V3.10016C9.21306 3.29518 9.27085 3.48572 9.37853 3.64832C9.48621 3.81092 9.63909 3.93849 9.81835 4.01531C10.0011 4.09599 10.2039 4.12006 10.4005 4.08441C10.5971 4.04876 10.7785 3.95503 10.9214 3.81531L10.9577 3.77895C11.0703 3.66625 11.204 3.57685 11.3511 3.51585C11.4983 3.45485 11.656 3.42345 11.8153 3.42345C11.9746 3.42345 12.1323 3.45485 12.2795 3.51585C12.4266 3.57685 12.5603 3.66625 12.6729 3.77895C12.7856 3.89152 12.875 4.02521 12.936 4.17236C12.997 4.31951 13.0284 4.47723 13.0284 4.63653C13.0284 4.79582 12.997 4.95355 12.936 5.1007C12.875 5.24785 12.7856 5.38153 12.6729 5.4941L12.6365 5.53047C12.4968 5.6733 12.4031 5.85472 12.3674 6.05132C12.3318 6.24792 12.3559 6.4507 12.4365 6.6335V6.68198C12.5134 6.86124 12.6409 7.01411 12.8035 7.1218C12.9661 7.22948 13.1567 7.28726 13.3517 7.28804H13.4547C13.7762 7.28804 14.0845 7.41575 14.3118 7.64306C14.5391 7.87038 14.6668 8.17869 14.6668 8.50016C14.6668 8.82164 14.5391 9.12995 14.3118 9.35726C14.0845 9.58458 13.7762 9.71228 13.4547 9.71228H13.4002C13.2051 9.71306 13.0146 9.77085 12.852 9.87853C12.6894 9.98621 12.5618 10.1391 12.485 10.3183Z" stroke="#6B004D" stroke-width="1.21" stroke-linecap="round" stroke-linejoin="round"/>
</svg>
