<svg width="327" height="120" viewBox="0 0 327 120" fill="none" xmlns="http://www.w3.org/2000/svg">
<path d="M98.0563 60.8722C98.4196 60.457 98.7829 60.2494 99.1463 60.2494C99.5615 60.1975 99.8729 60.3013 100.08 60.5608C100.34 60.7684 100.444 61.1058 100.392 61.5729C100.392 62.04 100.184 62.5591 99.7691 63.13C98.7829 64.4794 97.6411 65.8808 96.3435 67.3341C95.046 68.7354 93.6446 70.1108 92.1394 71.4603C90.6862 72.8098 89.207 74.0814 87.7018 75.2751C86.1966 76.4689 84.7434 77.455 83.342 78.2336C81.7849 79.1159 80.4614 79.5571 79.3715 79.5571C78.3334 79.5571 77.2954 78.8823 76.2573 77.5329C75.3231 76.3391 74.856 75.0675 74.856 73.7181C74.9079 72.3167 75.2193 70.578 75.7902 68.5019C76.1535 67.2043 76.6466 65.6732 77.2694 63.9085C77.9442 62.0919 78.4632 60.3532 78.8265 58.6923C79.2417 57.0315 79.3715 55.6301 79.2158 54.4882C79.0601 53.2945 78.3853 52.6976 77.1916 52.6976C76.3611 52.6976 75.4528 52.9831 74.4667 53.554C73.5325 54.1249 72.5723 54.8775 71.5861 55.8118C70.6519 56.6941 69.7436 57.7062 68.8612 58.848C67.9789 59.9899 67.2004 61.1058 66.5256 62.1957C66.1104 64.2199 65.6952 66.2182 65.28 68.1905C64.9167 69.8513 64.5274 71.6679 64.1122 73.6402C63.7489 75.5606 63.3855 77.2734 63.0222 78.7785C62.7108 79.038 62.3735 79.2197 62.0101 79.3235C61.6468 79.4273 61.3095 79.4792 60.998 79.4792C60.6347 79.4792 60.2714 79.4533 59.9081 79.4014C59.4929 79.2976 59.1036 79.1419 58.7403 78.9342C58.4289 78.7266 58.1175 78.4412 57.806 78.0779C57.4946 77.7664 57.2611 77.3253 57.1054 76.7543C59.441 67.1524 61.2835 59.4449 62.633 53.6319C63.9824 47.8188 65.0205 43.3811 65.7471 40.3189C66.5775 36.6857 67.1485 34.1685 67.4599 32.7671C67.6156 31.781 67.7453 30.8208 67.8491 29.8865C67.953 29.0561 68.0049 28.1997 68.0049 27.3174C68.0049 26.435 67.927 25.6305 67.7713 24.9039C68.1865 24.6444 68.6277 24.4368 69.0948 24.2811C69.6138 24.1254 70.1069 23.9956 70.574 23.8918C71.1449 23.7361 71.7159 23.6064 72.2868 23.5025C72.8577 23.3987 73.3767 23.3468 73.8439 23.3468C74.2591 23.3468 74.6484 23.3987 75.0117 23.5025C75.375 23.5545 75.6085 23.7102 75.7124 23.9697C76.0238 24.2292 76.1535 24.7482 76.1016 25.5267C76.1016 26.3053 76.0497 27.1098 75.9459 27.9402C75.7383 28.9263 75.5047 29.9903 75.2452 31.1322C74.1553 35.3363 72.9356 39.4366 71.5861 43.433C70.2367 47.3776 68.991 51.6077 67.8491 56.1232C68.5239 55.0851 69.3284 54.0211 70.2626 52.9312C71.1968 51.8412 72.2089 50.8551 73.2989 49.9727C74.4407 49.0385 75.6345 48.2859 76.8802 47.715C78.1258 47.0922 79.4493 46.7807 80.8507 46.7807C81.5773 46.7807 82.252 46.9105 82.8749 47.17C83.5496 47.3776 84.1205 47.7669 84.5877 48.3378C85.1067 48.8568 85.4959 49.5835 85.7555 50.5177C86.015 51.4001 86.1188 52.516 86.0669 53.8654C86.0669 54.6959 85.9631 55.5522 85.7555 56.4346C85.5997 57.3169 85.3662 58.3031 85.0548 59.393C84.7434 60.4311 84.3281 61.5989 83.8091 62.8964C83.342 64.194 82.7711 65.6991 82.0963 67.4119C81.6292 68.6057 81.2659 69.6178 81.0064 70.4482C80.7469 71.2786 80.7988 72.0053 81.1621 72.6281C81.6292 73.4585 82.5375 73.6662 83.887 73.2509C85.2883 72.7838 87.3644 71.4344 90.1152 69.2026C90.7381 68.6835 91.4388 68.0348 92.2173 67.2562C92.9958 66.4777 93.7484 65.6991 94.475 64.9206C95.2017 64.0902 95.8764 63.3116 96.4992 62.585C97.1221 61.8584 97.6411 61.2874 98.0563 60.8722ZM134.959 62.5072C134.232 63.5452 133.298 64.8428 132.156 66.3998C131.014 67.905 129.821 69.4361 128.575 70.9932C127.381 72.4984 126.187 73.8997 124.994 75.1973C123.852 76.4429 122.892 77.3253 122.113 77.8443C121.594 78.1557 120.997 78.4152 120.322 78.6228C119.648 78.8304 118.947 78.9602 118.22 79.0121C117.546 79.064 116.897 79.0121 116.274 78.8564C115.651 78.7526 115.106 78.545 114.639 78.2336C114.172 77.8702 113.783 77.3512 113.471 76.6765C113.212 76.1056 112.952 75.353 112.693 74.4187C112.485 73.4845 112.407 72.3167 112.459 70.9153C111.214 72.9914 109.838 74.6004 108.333 75.7422C106.828 76.8322 105.4 77.6367 104.051 78.1557C102.494 78.7266 100.937 79.064 99.3798 79.1678C98.6532 79.1678 97.8746 78.9083 97.0442 78.3893C96.2138 77.9221 95.5131 77.1696 94.9422 76.1315C94.3712 75.0416 94.0079 73.6662 93.8522 72.0053C93.6965 70.2925 93.9041 68.2683 94.475 65.9327C95.2017 62.7667 96.3435 59.8861 97.9006 57.291C99.5096 54.6959 101.248 52.49 103.117 50.6734C104.985 48.8049 106.828 47.4036 108.644 46.4693C110.461 45.5351 111.966 45.1199 113.16 45.2237C114.561 45.4832 115.703 45.8984 116.585 46.4693C117.312 46.9884 117.779 47.7669 117.987 48.8049C118.246 49.7911 117.831 51.1146 116.741 52.7755C117.468 52.6198 118.065 52.516 118.532 52.4641C119.051 52.4121 119.44 52.3862 119.7 52.3862C120.011 52.3862 120.219 52.4121 120.322 52.4641C120.374 52.5679 120.4 52.8014 120.4 53.1647C120.4 53.4761 120.322 54.073 120.167 54.9554C120.011 55.8377 119.777 57.0315 119.466 58.5366C119.155 60.0418 118.739 61.9881 118.22 64.3756C118.117 64.8428 118.013 65.2839 117.909 65.6991C117.857 66.0625 117.779 66.4517 117.675 66.8669C117.623 67.2303 117.546 67.6714 117.442 68.1905C117.338 68.7095 117.208 69.3583 117.053 70.1368C117.001 70.6039 116.975 71.1229 116.975 71.6939C117.027 72.2129 117.13 72.706 117.286 73.1731C117.442 73.6402 117.675 74.0295 117.987 74.3409C118.35 74.6004 118.843 74.7302 119.466 74.7302C119.985 74.7302 120.66 74.4187 121.49 73.7959C122.321 73.1212 123.203 72.2907 124.137 71.3046C125.071 70.2666 126.032 69.1507 127.018 67.9569C128.056 66.7112 129.016 65.5175 129.898 64.3756C130.781 63.2338 131.559 62.2217 132.234 61.3394C132.961 60.457 133.48 59.8082 133.791 59.393C134.206 58.9259 134.622 58.6664 135.037 58.6145C135.452 58.5107 135.763 58.6145 135.971 58.9259C136.179 59.2373 136.205 59.7044 136.049 60.3273C135.945 60.9501 135.582 61.6767 134.959 62.5072ZM112.148 65.9327C112.407 64.8947 112.719 63.675 113.082 62.2736C113.445 60.8722 113.757 59.5228 114.016 58.2252C114.276 56.9277 114.457 55.8637 114.561 55.0332C114.717 54.1509 114.691 53.7357 114.483 53.7876C114.224 53.8395 113.938 53.9173 113.627 54.0211C113.367 54.1249 113.03 54.2028 112.615 54.2547C112.2 54.3066 111.784 54.3844 111.369 54.4882C111.784 53.6578 112.018 52.9831 112.07 52.4641C112.174 51.8931 112.2 51.452 112.148 51.1405C112.096 50.7772 111.992 50.4918 111.836 50.2842C111.265 49.817 110.253 50.2063 108.8 51.452C107.399 52.6457 105.764 54.8775 103.895 58.1474C103.117 59.4968 102.494 60.9501 102.027 62.5072C101.56 64.0123 101.222 65.4396 101.015 66.7891C100.859 68.1386 100.833 69.3323 100.937 70.3704C101.041 71.3565 101.248 72.0053 101.56 72.3167C102.131 72.8876 102.779 73.1731 103.506 73.1731C104.233 73.1212 104.959 72.9136 105.686 72.5503C106.464 72.135 107.217 71.616 107.944 70.9932C108.722 70.3704 109.397 69.7216 109.968 69.0468C110.591 68.3721 111.084 67.7493 111.447 67.1784C111.862 66.6074 112.096 66.1922 112.148 65.9327ZM169.682 62.5072C168.488 64.4794 167.112 66.5296 165.555 68.6576C164.05 70.7337 162.441 72.6541 160.728 74.4187C159.016 76.1315 157.251 77.5588 155.434 78.7007C153.618 79.8425 151.801 80.4135 149.985 80.4135C148.168 80.4135 146.844 79.7906 146.014 78.545C145.236 77.3512 144.872 76.0018 144.924 74.4966C144.924 73.8219 144.976 73.225 145.08 72.706C145.236 72.1869 145.391 71.7198 145.547 71.3046C145.703 70.8894 145.858 70.4742 146.014 70.0589C146.222 69.5918 146.403 69.0728 146.559 68.5019C146.767 67.8271 146.767 67.2303 146.559 66.7112C146.403 66.1403 146.196 65.6472 145.936 65.232C145.469 65.751 144.924 66.2182 144.301 66.6334C143.73 66.9967 143.004 67.1784 142.121 67.1784C141.499 67.1784 140.928 66.8929 140.409 66.322C139.89 65.6991 139.63 64.9466 139.63 64.0642C139.63 63.3376 139.786 62.7407 140.097 62.2736C140.461 61.8065 140.85 61.4432 141.265 61.1836C141.732 60.9241 142.199 60.7425 142.666 60.6387C143.133 60.5349 143.523 60.483 143.834 60.483C143.99 60.483 144.301 60.5089 144.768 60.5608C145.287 60.6127 145.832 60.6906 146.403 60.7944C148.272 59.2892 149.595 57.9397 150.374 56.746C151.204 55.5003 151.282 54.3844 150.607 53.3983C150.192 52.7236 149.673 52.3862 149.05 52.3862C148.428 52.3343 147.779 52.49 147.104 52.8533C146.429 53.1647 145.755 53.58 145.08 54.099C144.457 54.618 143.886 55.1111 143.367 55.5782C142.329 56.6162 141.161 57.8619 139.864 59.3152C138.618 60.7165 137.58 61.8843 136.749 62.8186C136.386 64.3756 136.023 66.0106 135.66 67.7233C135.348 69.2285 134.985 70.9413 134.57 72.8617C134.206 74.7302 133.817 76.6765 133.402 78.7007C133.09 78.8564 132.753 78.9602 132.39 79.0121C132.078 79.1159 131.793 79.1938 131.533 79.2457C131.222 79.2976 130.91 79.3235 130.599 79.3235C130.184 79.3235 129.795 79.2976 129.431 79.2457C129.068 79.2457 128.782 79.1159 128.575 78.8564C128.315 78.6488 128.186 78.2855 128.186 77.7664C128.134 77.2474 128.263 76.5208 128.575 75.5865C128.99 74.2371 129.509 72.4465 130.132 70.2146C130.755 67.9309 131.404 65.4396 132.078 62.7407C132.753 60.0418 133.428 57.2391 134.102 54.3325C134.829 51.3741 135.504 48.5714 136.127 45.9244C136.749 43.2254 137.269 40.812 137.684 38.684C138.151 36.5041 138.488 34.7913 138.696 33.5457C138.852 32.1962 139.007 30.8986 139.163 29.653C139.267 28.6149 139.319 27.6028 139.319 26.6167C139.371 25.5786 139.319 24.8001 139.163 24.2811C139.422 24.0216 139.786 23.788 140.253 23.5804C140.72 23.3728 141.239 23.2171 141.81 23.1133C142.381 22.9576 143.056 22.8278 143.834 22.724C144.717 22.6202 145.443 22.5943 146.014 22.6462C146.637 22.6981 147.078 22.9576 147.338 23.4247C147.649 23.9437 147.701 24.8261 147.493 26.0717C147.338 27.2655 146.974 28.9523 146.403 31.1322C145.677 33.9349 144.924 36.5041 144.146 38.8397C143.419 41.1234 142.692 43.2773 141.966 45.3015C141.291 47.3257 140.616 49.298 139.941 51.2184C139.319 53.0869 138.748 55.0073 138.229 56.9796C139.267 55.4744 140.564 53.8914 142.121 52.2305C143.678 50.5177 145.443 49.1164 147.415 48.0264C149.492 46.9365 151.204 46.3915 152.554 46.3915C154.215 46.3915 155.408 46.9624 156.135 48.1043C156.862 49.1942 157.199 50.4918 157.147 51.9969C157.095 53.1907 156.784 54.3066 156.213 55.3446C155.694 56.3308 155.045 57.265 154.267 58.1474C153.488 58.9778 152.658 59.7044 151.775 60.3273C150.893 60.9501 150.14 61.4691 149.517 61.8843C150.244 62.2995 150.867 62.8705 151.386 63.5971C151.957 64.2718 152.216 65.1282 152.164 66.1663C152.113 67.5676 151.827 68.8133 151.308 69.9032C150.841 70.9413 150.607 71.9015 150.607 72.7838C150.659 73.4585 150.789 73.9516 150.997 74.263C151.256 74.5744 151.775 74.7302 152.554 74.7302C153.955 74.7302 155.408 74.1333 156.914 72.9395C158.471 71.7458 159.924 70.3704 161.273 68.8133C162.623 67.2562 163.868 65.7251 165.01 64.2199C166.152 62.6629 167.035 61.521 167.657 60.7944C168.54 59.8601 169.266 59.6266 169.837 60.0937C170.46 60.5089 170.408 61.3134 169.682 62.5072ZM187.899 65.6213C187.38 67.5936 186.68 69.4361 185.797 71.1489C184.915 72.8617 183.851 74.3409 182.605 75.5865C181.411 76.8322 180.036 77.7924 178.479 78.4671C176.974 79.1938 175.313 79.5571 173.496 79.5571C171.368 79.5571 169.682 79.0899 168.436 78.1557C167.242 77.2734 166.334 76.1575 165.711 74.808C165.14 73.4585 164.803 71.9793 164.699 70.3704C164.543 68.7614 164.465 67.2562 164.465 65.8549C164.465 64.8687 164.595 63.7788 164.855 62.585C165.062 61.3913 165.374 60.1715 165.789 58.9259C166.204 57.6802 166.723 56.4346 167.346 55.1889C168.021 53.9433 168.799 52.8014 169.682 51.7634C169.993 50.881 170.46 50.1025 171.083 49.4278C171.758 48.753 172.51 48.2081 173.341 47.7928C174.223 47.3257 175.157 46.9884 176.143 46.7807C177.13 46.5212 178.09 46.3915 179.024 46.3915C179.18 46.3915 179.309 46.4174 179.413 46.4693C179.569 46.5212 179.725 46.5731 179.88 46.625C180.555 46.6769 181.385 46.9365 182.372 47.4036C183.41 47.8707 184.396 48.5714 185.33 49.5056C186.316 50.4399 187.147 51.6336 187.821 53.0869C188.496 54.4882 188.833 56.201 188.833 58.2252C188.833 58.6404 188.808 59.1595 188.756 59.7823C188.704 60.3532 188.652 60.8463 188.6 61.2615C189.794 60.7944 191.039 60.2235 192.337 59.5487C193.634 58.874 194.88 58.1733 196.074 57.4467C197.32 56.6681 198.461 55.8896 199.499 55.1111C200.537 54.3325 201.368 53.6319 201.991 53.009C202.51 52.5419 202.951 52.2824 203.314 52.2305C203.678 52.1786 203.937 52.2824 204.093 52.5419C204.248 52.8014 204.274 53.1647 204.171 53.6319C204.067 54.099 203.781 54.618 203.314 55.1889C203.055 55.5003 202.38 56.1232 201.29 57.0574C200.252 57.9917 199.006 59.0037 197.553 60.0937C196.1 61.1836 194.517 62.2476 192.804 63.2857C191.091 64.3237 189.456 65.1023 187.899 65.6213ZM174.742 53.7876C174.586 54.2547 174.508 54.7478 174.508 55.2668C174.508 56.0972 174.56 56.9796 174.664 57.9138C174.768 58.7961 175.027 59.6006 175.443 60.3273C175.858 61.0539 176.507 61.6767 177.389 62.1957C178.323 62.6629 179.595 62.8964 181.204 62.8964C181.463 62.8964 181.723 62.8964 181.982 62.8964C182.242 62.8445 182.501 62.7926 182.761 62.7407C182.917 62.066 183.046 61.4691 183.15 60.9501C183.306 60.3792 183.384 59.8861 183.384 59.4709C183.488 58.4847 183.488 57.4726 183.384 56.4346C183.28 55.3965 183.072 54.4623 182.761 53.6319C182.501 52.7495 182.138 52.0488 181.671 51.5298C181.256 50.9589 180.737 50.6734 180.114 50.6734C179.128 50.6734 178.168 50.9589 177.233 51.5298C176.351 52.0488 175.521 52.8014 174.742 53.7876ZM169.759 67.4898C169.759 68.424 169.811 69.3583 169.915 70.2925C170.019 71.1748 170.226 71.9793 170.538 72.706C170.849 73.3807 171.265 73.9516 171.784 74.4187C172.303 74.834 172.977 75.0416 173.808 75.0416C174.742 75.0416 175.598 74.834 176.377 74.4187C177.155 73.9516 177.856 73.3807 178.479 72.706C179.102 71.9793 179.647 71.1748 180.114 70.2925C180.633 69.3583 181.074 68.3981 181.437 67.4119C181.074 67.4638 180.711 67.5157 180.347 67.5676C180.036 67.5676 179.673 67.5676 179.258 67.5676C177.285 67.5676 175.572 66.9967 174.119 65.8549C172.718 64.6611 171.628 63.1559 170.849 61.3394C170.538 62.4293 170.278 63.4933 170.071 64.5313C169.863 65.5694 169.759 66.5555 169.759 67.4898ZM198.02 92.7143C196.775 92.7143 196.022 92.5586 195.762 92.2472C195.451 91.9877 195.399 91.4427 195.607 90.6123C195.659 90.3528 195.918 89.185 196.385 87.1089C196.852 85.0847 197.423 82.5934 198.098 79.6349C198.825 76.7284 199.577 73.5624 200.356 70.1368C201.186 66.7112 201.965 63.4933 202.691 60.483C201.601 60.5868 200.797 60.5089 200.278 60.2494C199.759 59.938 199.499 59.5487 199.499 59.0816C199.551 58.5626 199.837 58.0436 200.356 57.5245C200.927 57.0055 201.731 56.5643 202.769 56.201C202.977 56.0972 203.288 55.9934 203.704 55.8896C203.963 55.0073 204.197 54.099 204.404 53.1647C204.612 52.3862 204.819 51.5558 205.027 50.6734C205.235 49.7911 205.442 48.9347 205.65 48.1043L211.1 24.8261C211.411 23.6323 211.878 22.75 212.501 22.179C213.176 21.5562 214.395 21.0372 216.16 20.622C217.613 20.2587 218.625 20.1289 219.196 20.2327C219.767 20.2846 220.027 20.4403 219.975 20.6998C219.819 21.2707 219.43 22.6462 218.807 24.8261C218.184 27.006 217.432 29.6789 216.549 32.845C215.719 35.9591 214.811 39.4106 213.824 43.1995C212.838 46.9365 211.878 50.6475 210.944 54.3325C214.058 53.8654 217.847 53.4761 222.31 53.1647C224.023 52.9571 225.684 52.8274 227.293 52.7755C228.954 52.7236 230.537 52.7236 232.042 52.7755C232.769 49.9727 233.469 47.17 234.144 44.3673C234.871 41.5646 235.546 38.9694 236.168 36.5819C236.791 34.1944 237.336 32.0924 237.803 30.2758C238.322 28.4073 238.712 27.0319 238.971 26.1496C239.283 25.1634 239.568 24.3589 239.828 23.7361C240.139 23.1133 240.476 22.6202 240.84 22.2569C241.255 21.8936 241.722 21.6341 242.241 21.4784C242.76 21.3227 243.357 21.1929 244.032 21.0891C244.395 21.0891 244.836 21.0631 245.355 21.0112C245.77 21.0112 246.263 21.0112 246.834 21.0112C247.405 20.9593 248.054 20.9853 248.781 21.0891C246.808 26.3831 244.966 31.755 243.253 37.2048C241.592 42.6026 240.035 47.8707 238.582 53.009C239.516 53.1128 240.321 53.1907 240.995 53.2426C241.722 53.2945 242.293 53.3723 242.708 53.4761C243.954 53.6838 244.732 54.0211 245.044 54.4882C245.407 54.9554 245.303 55.6301 244.732 56.5124L243.798 57.6802C243.487 58.0955 243.097 58.5885 242.63 59.1595C242.163 59.6785 241.566 60.2754 240.84 60.9501C240.424 60.7944 239.983 60.6387 239.516 60.483C239.101 60.3273 238.686 60.1715 238.27 60.0158C237.751 59.8601 237.258 59.7044 236.791 59.5487C236.428 60.7944 236.091 62.0141 235.779 63.2078C235.468 64.3497 235.182 65.5175 234.923 66.7112C234.3 69.2545 233.703 71.8755 233.132 74.5744C232.665 76.9101 232.172 79.4792 231.653 82.2819C231.186 85.1366 230.822 87.9393 230.563 90.6901C230.148 90.8977 229.733 91.0275 229.317 91.0794C228.902 91.1832 228.539 91.261 228.227 91.3129C227.864 91.3649 227.501 91.4168 227.137 91.4687H227.06H226.904H226.748C226.541 91.4687 226.333 91.4687 226.125 91.4687C225.918 91.4687 225.71 91.4168 225.502 91.3129C225.243 91.261 224.983 91.1832 224.724 91.0794C224.464 90.9756 224.205 90.8718 223.945 90.768C223.738 90.7161 223.504 90.6123 223.245 90.4566C223.66 88.7438 223.971 87.1348 224.179 85.6296C224.438 84.1245 224.62 82.801 224.724 81.6591C224.88 80.3097 224.983 79.1159 225.035 78.0779C225.087 76.7284 224.932 75.2492 224.568 73.6402C224.257 72.0312 223.738 70.4482 223.011 68.8911C222.336 67.3341 221.48 65.8808 220.442 64.5313C219.456 63.1819 218.314 62.04 217.016 61.1058C215.719 60.2235 214.473 59.6525 213.279 59.393C212.138 59.1335 210.97 59.0556 209.776 59.1595C209.413 60.7165 209.075 62.2217 208.764 63.675C208.453 65.1282 208.193 66.5296 207.985 67.879C207.415 70.8894 206.87 73.8219 206.351 76.6765C205.935 79.1159 205.494 81.6332 205.027 84.2283C204.612 86.8753 204.3 89.1331 204.093 91.0015C203.262 91.4168 202.484 91.7282 201.757 91.9358C201.031 92.1953 200.382 92.3769 199.811 92.4808C199.188 92.6365 198.591 92.7143 198.02 92.7143ZM228.85 58.1474C227.034 57.9397 225.295 57.8359 223.634 57.8359C222.025 57.784 220.598 57.7581 219.352 57.7581C220.39 58.329 221.298 59.0816 222.077 60.0158C222.907 60.9501 223.764 62.0141 224.646 63.2078C225.477 64.2978 226.151 65.4915 226.67 66.7891C227.189 68.0867 227.63 69.3323 227.994 70.5261C228.409 68.3462 228.85 66.2182 229.317 64.1421C229.784 62.066 230.226 60.1196 230.641 58.3031C230.329 58.2512 230.018 58.2252 229.707 58.2252C229.447 58.1733 229.162 58.1474 228.85 58.1474ZM257.656 79.2457C255.684 79.2457 254.075 78.9342 252.829 78.3114C251.583 77.6886 250.597 76.936 249.871 76.0537C249.196 75.1194 248.703 74.1333 248.391 73.0952C248.132 72.0053 248.002 71.0191 248.002 70.1368C248.002 68.5797 248.132 66.9448 248.391 65.232C248.651 63.4673 248.962 61.8584 249.326 60.4051C249.689 58.8999 250 57.6283 250.26 56.5903C250.571 55.5522 250.779 54.9035 250.883 54.6439C251.35 53.1388 251.947 51.8412 252.673 50.7513C253.452 49.6094 254.516 48.8309 255.865 48.4157C256.384 48.3119 256.929 48.2081 257.5 48.1043C257.967 48.0524 258.435 48.0264 258.902 48.0264C259.421 48.0264 259.888 48.1043 260.303 48.26C258.902 51.8412 257.786 54.8256 256.955 57.2131C256.177 59.6006 255.58 61.547 255.165 63.0521C254.698 64.7649 254.412 66.1403 254.308 67.1784C254.049 69.514 254.256 71.2786 254.931 72.4724C255.606 73.6662 256.981 74.263 259.057 74.263C260.407 74.263 261.704 73.77 262.95 72.7838C264.196 71.7458 265.338 70.4223 266.376 68.8133C266.22 67.9828 266.142 67.1265 266.142 66.2441C266.142 64.5832 266.272 62.9743 266.531 61.4172C266.843 59.8082 267.18 58.329 267.543 56.9796C267.959 55.5782 268.374 54.3325 268.789 53.2426C269.256 52.1526 269.645 51.2962 269.957 50.6734C270.528 49.4278 271.047 48.6752 271.514 48.4157C271.981 48.1043 272.734 47.9226 273.772 47.8707C274.187 47.8188 274.524 47.8188 274.784 47.8707C275.095 47.8707 275.355 47.8966 275.562 47.9485C276.185 48.1043 276.497 48.4157 276.497 48.8828C276.497 49.7132 276.445 50.9589 276.341 52.6198C276.237 54.2806 275.926 55.9934 275.407 57.7581C275.043 59.2114 274.68 60.457 274.317 61.4951C274.005 62.4812 273.694 63.3376 273.382 64.0642C273.071 64.739 272.76 65.3099 272.448 65.777C272.137 66.1922 271.851 66.5815 271.592 66.9448C271.696 68.5019 271.825 69.7475 271.981 70.6818C272.137 71.616 272.318 72.3426 272.526 72.8617C272.786 73.3288 273.071 73.6662 273.382 73.8738C273.746 74.0295 274.135 74.1073 274.55 74.1073C275.277 74.1073 276.133 73.77 277.119 73.0952C278.105 72.3686 279.118 71.4863 280.156 70.4482C281.246 69.3583 282.31 68.1905 283.348 66.9448C284.438 65.6472 285.424 64.4275 286.306 63.2857C287.188 62.1438 287.941 61.1577 288.564 60.3273C289.187 59.4449 289.576 58.8999 289.732 58.6923C290.095 58.2252 290.432 57.9397 290.744 57.8359C291.107 57.7321 291.392 57.784 291.6 57.9917C291.808 58.1474 291.912 58.4328 291.912 58.848C291.963 59.2114 291.86 59.6266 291.6 60.0937C290.562 62.066 289.264 64.168 287.707 66.3998C286.202 68.5797 284.567 70.6039 282.803 72.4724C281.09 74.3409 279.351 75.898 277.586 77.1436C275.822 78.3893 274.161 79.0121 272.604 79.0121C271.202 79.0121 270.087 78.545 269.256 77.6107C268.478 76.6246 267.803 75.2232 267.232 73.4066C266.038 75.2751 264.637 76.7284 263.028 77.7664C261.419 78.7526 259.628 79.2457 257.656 79.2457ZM303.2 33.3899C302.422 36.5041 301.539 39.4885 300.553 42.3431C299.619 45.1458 298.633 47.7928 297.595 50.2842C296.609 52.7236 295.597 54.9554 294.559 56.9796C293.572 59.0037 292.69 60.7684 291.912 62.2736C291.393 66.0106 291.393 69.0209 291.912 71.3046C292.431 73.5883 293.443 74.7302 294.948 74.7302C296.193 74.7302 297.413 74.1592 298.607 73.0174C299.801 71.8755 300.865 70.4742 301.799 68.8133C302.733 67.1524 303.512 65.3877 304.135 63.5192C304.809 61.5989 305.224 59.8861 305.38 58.3809C304.394 58.1214 303.564 57.6802 302.889 57.0574C302.214 56.3827 301.877 55.5003 301.877 54.4104C301.877 53.6838 302.084 53.009 302.5 52.3862C302.915 51.7115 303.408 51.1405 303.979 50.6734C304.55 50.2063 305.173 49.843 305.847 49.5835C306.522 49.324 307.145 49.1942 307.716 49.1942C308.598 49.1942 309.351 49.7651 309.974 50.907C310.596 51.9969 311.012 53.3983 311.219 55.1111C313.295 55.0592 315.475 54.7478 317.759 54.1768C320.043 53.6059 322.197 52.8793 324.221 51.9969C324.792 51.7374 325.259 51.6596 325.622 51.7634C325.985 51.8672 326.219 52.0748 326.323 52.3862C326.478 52.6976 326.478 53.0609 326.323 53.4761C326.167 53.8395 325.856 54.1249 325.389 54.3325C324.195 55.0073 322.949 55.6301 321.652 56.201C320.406 56.72 319.16 57.1612 317.915 57.5245C316.669 57.8878 315.475 58.1733 314.333 58.3809C313.191 58.5885 312.153 58.6923 311.219 58.6923C311.012 60.7684 310.363 63.0262 309.273 65.4656C308.183 67.8531 306.859 70.0849 305.302 72.161C303.745 74.1852 302.007 75.872 300.086 77.2215C298.218 78.5709 296.375 79.2457 294.559 79.2457C293.988 79.2457 293.235 79.1678 292.301 79.0121C291.367 78.8564 290.458 78.3114 289.576 77.3772C288.694 76.4429 287.941 74.9637 287.318 72.9395C286.695 70.8634 286.436 67.9309 286.54 64.1421C286.592 61.5989 286.877 58.8999 287.396 56.0453C287.915 53.1907 288.538 50.3361 289.265 47.4814C289.991 44.6268 290.796 41.876 291.678 39.229C292.612 36.53 293.495 34.1166 294.325 31.9886C295.155 29.8087 295.908 27.9921 296.583 26.5388C297.309 25.0856 297.854 24.1513 298.218 23.7361C298.685 23.1652 299.23 22.75 299.853 22.4905C300.475 22.179 301.072 21.9714 301.643 21.8676C302.266 21.7119 302.837 21.66 303.356 21.7119C303.875 21.7638 304.238 21.8417 304.446 21.9455C304.757 22.1531 304.835 23.2949 304.679 25.371C304.576 27.4471 304.083 30.1201 303.2 33.3899Z" fill="#FF31C5"/>
<ellipse cx="175.841" cy="93.145" rx="4.49804" ry="6.74707" fill="#FF31C5"/>
<g clip-path="url(#clip0_2885_2303)">
<path d="M41.2949 78.8089L13.9416 45.9107C10.7289 42.046 9.21228 37.1608 9.67301 32.1595C10.1337 27.1583 12.5173 22.6324 16.382 19.4197L20.6236 15.8937L47.9764 48.7974C51.1891 52.6621 52.7057 57.5472 52.245 62.5485C51.7843 67.5498 49.4007 72.0756 45.536 75.2883L41.2944 78.8144L41.2949 78.8089ZM20.0887 21.7002L19.0178 22.5904C16.0027 25.0969 14.1412 28.6323 13.7814 32.538C13.4216 36.4437 14.6058 40.2597 17.1124 43.2748L41.8293 73.0078L42.9002 72.1176C45.9154 69.6111 47.7768 66.0758 48.1366 62.17C48.4964 58.2643 47.3117 54.4539 44.8057 51.4332L20.0887 21.7002Z" fill="#FF31C5" stroke="#FF31C5" stroke-width="1.8515"/>
<path d="M39.0544 37.3406C35.0665 36.9732 31.2184 35.0885 28.4632 31.7742L17.4525 18.5289L19.0379 17.211C28.4782 9.36326 42.5454 10.6591 50.3931 20.0995L57.1667 28.2477L50.4842 33.8028C47.1699 36.5579 43.0423 37.7079 39.0544 37.3406ZM23.3391 19.1541L31.6394 29.1388C35.6976 34.0206 42.9722 34.6907 47.8539 30.6326L51.3656 27.7133L47.2279 22.7358C41.2799 15.5808 30.9467 14.1703 23.3446 19.1546L23.3391 19.1541Z" fill="#FF31C5" stroke="#FF31C5" stroke-width="1.8515"/>
<path d="M26.6036 82.5325C20.923 82.0092 15.4468 79.3281 11.5234 74.6024L4.74989 66.4543L11.4323 60.8992C14.6449 58.2286 18.7055 56.9674 22.8632 57.3504C27.0209 57.7335 30.7827 59.7152 33.4533 62.9278L44.4641 76.173L42.8787 77.491C38.1585 81.4148 32.2787 83.0553 26.6036 82.5325ZM10.5619 66.9897L14.6996 71.9671C20.6476 79.1222 30.9803 80.5381 38.5829 75.5484L30.2826 65.5636C28.3182 63.2005 25.5468 61.7409 22.4847 61.4588C19.4226 61.1767 16.4312 62.1055 14.0681 64.0699L10.5564 66.9892L10.5619 66.9897Z" fill="#FF31C5" stroke="#FF31C5" stroke-width="1.8515"/>
</g>
<defs>
<clipPath id="clip0_2885_2303">
<rect width="55.4593" height="77.676" fill="white" transform="translate(7.12546 5.26758) rotate(5.26333)"/>
</clipPath>
</defs>
</svg>
