<svg width="200" height="200" viewBox="0 0 200 200" fill="none" xmlns="http://www.w3.org/2000/svg">
<path d="M99 175C140.421 175 174 141.421 174 100C174 58.5786 140.421 25 99 25C57.5786 25 24 58.5786 24 100C24 141.421 57.5786 175 99 175Z" fill="#E7F8F2"/>
<path d="M100 200C155.228 200 200 155.228 200 100C200 44.7715 155.228 0 100 0C44.7715 0 0 44.7715 0 100C0 155.228 44.7715 200 100 200Z" fill="#E7F8F2"/>
<path d="M100.25 61.708C79.0132 61.708 61.708 79.0132 61.708 100.25C61.708 121.486 79.0132 138.791 100.25 138.791C121.486 138.791 138.791 121.486 138.791 100.25C138.791 79.0132 121.486 61.708 100.25 61.708ZM118.673 91.3851L96.8195 113.238C96.2799 113.778 95.5476 114.086 94.7768 114.086C94.0059 114.086 93.2736 113.778 92.7341 113.238L81.8268 102.331C80.709 101.213 80.709 99.3632 81.8268 98.2455C82.9445 97.1278 84.7945 97.1278 85.9122 98.2455L94.7768 107.11L114.587 87.2997C115.705 86.182 117.555 86.182 118.673 87.2997C119.79 88.4174 119.79 90.2288 118.673 91.3851Z" fill="#09B47C"/>
</svg>
