<svg width="16" height="17" viewBox="0 0 16 17" fill="none" xmlns="http://www.w3.org/2000/svg">
<path d="M3.54436 13.4591C3.94991 12.5036 4.89678 11.8335 6.00016 11.8335H10.0002C11.1035 11.8335 12.0504 12.5036 12.456 13.4591M10.6668 6.8335C10.6668 8.30626 9.47292 9.50016 8.00016 9.50016C6.5274 9.50016 5.3335 8.30626 5.3335 6.8335C5.3335 5.36074 6.5274 4.16683 8.00016 4.16683C9.47292 4.16683 10.6668 5.36074 10.6668 6.8335ZM14.6668 8.50016C14.6668 12.1821 11.6821 15.1668 8.00016 15.1668C4.31826 15.1668 1.3335 12.1821 1.3335 8.50016C1.3335 4.81826 4.31826 1.8335 8.00016 1.8335C11.6821 1.8335 14.6668 4.81826 14.6668 8.50016Z" stroke="#6B004D" stroke-width="1.21" stroke-linecap="round" stroke-linejoin="round"/>
</svg>
